<svg xmlns="http://www.w3.org/2000/svg" width="48" height="48" fill="none">
    <path fill="#1E1E1E" d="M0 0h48v48H0z"/>
    <path fill="#032A2E" d="M48 0H0v48h48V0Z"/>
    <path fill="#1AA3FF"
          d="M8.30114 34H5.71591l7.47729-20.3636h2.5454L23.2159 34h-2.5852l-6.0852-17.142h-.1591L8.30114 34Zm.95454-7.9545H19.6761v2.1875H9.25568v-2.1875ZM27.5078 34V13.6364h7.1193c1.4186 0 2.5885.2452 3.5099.7358.9214.4839 1.6075 1.1368 2.0583 1.9588.4507.8153.6761 1.7201.6761 2.7145 0 .875-.1558 1.5975-.4673 2.1676-.3049.57-.7093 1.0208-1.2131 1.3522-.4971.3315-1.0374.5767-1.6207.7358V23.5c.6231.0398 1.2495.2585 1.8792.6562.6298.3978 1.1568.9679 1.581 1.7103.4243.7424.6364 1.6505.6364 2.7244 0 1.0208-.232 1.9389-.696 2.7543-.4641.8153-1.1965 1.4616-2.1975 1.9389-1.0009.4773-2.3035.7159-3.9077.7159h-7.3579Zm2.4659-2.1875h4.892c1.6108 0 2.7543-.3116 3.4304-.9347.6828-.6297 1.0242-1.392 1.0242-2.2869 0-.6894-.1757-1.3257-.527-1.9091-.3513-.5899-.8518-1.0606-1.5014-1.4119-.6496-.358-1.4186-.5369-2.3068-.5369h-5.0114v7.0795Zm0-9.2273h4.5739c.7424 0 1.4119-.1458 2.0085-.4375.6032-.2916 1.0805-.7026 1.4318-1.2329.358-.5303.5369-1.1534.5369-1.8693 0-.8949-.3115-1.6539-.9346-2.277-.6231-.6298-1.6108-.9446-2.9631-.9446h-4.6534v6.7613Z"/>
</svg>
