<?xml version="1.0" encoding="utf-8"?>
<!-- Generator: Adobe Illustrator 22.1.0, SVG Export Plug-In . SVG Version: 6.00 Build 0)  -->
<svg id="Livello_1" style="enable-background:new 0 0 48 48;" version="1.1" viewBox="0 0 48 48"
     x="0px"
     xml:space="preserve" xmlns="http://www.w3.org/2000/svg" y="0px">
<style type="text/css">
	.st0 {
    fill: #032A2E;
  }

  .st1 {
    fill: #1AA3FF;
  }
</style>
  <rect class="st0" height="48" width="48"/>
  <g>
	<path class="st1" d="M11.6,26.6l-2,6.1H7l6.6-19.4h3l6.6,19.4h-2.7l-2.1-6.1H11.6z M18,24.7l-1.9-5.6c-0.4-1.3-0.7-2.4-1-3.5H15
		c-0.3,1.2-0.6,2.3-1,3.5l-1.9,5.6H18z"/>
    <path class="st1" d="M26.1,32.8V13.3h2.7l6.2,9.8c1.4,2.3,2.6,4.3,3.5,6.3l0.1,0c-0.2-2.6-0.3-5-0.3-8v-8.1h2.4v19.4h-2.5L32,22.9
		c-1.4-2.2-2.7-4.4-3.6-6.5l-0.1,0c0.1,2.5,0.2,4.8,0.2,8v8.3H26.1z"/>
</g>
</svg>
